<svg width="58" height="48" viewBox="0 0 58 48" fill="none" xmlns="http://www.w3.org/2000/svg">
<path d="M15.8582 44.2123L19.2769 17.3691H1.13232L4.47563 44.2042C4.66273 45.7061 5.93918 46.8333 7.45261 46.8333H12.8823C14.3926 46.8333 15.6674 45.7106 15.8582 44.2123Z" stroke="#FFAE00" stroke-width="2"/>
<path d="M12.3896 14.75H8.63719L12.3896 1.00001L21.5027 1V4.27381L15.5244 4.27382L12.3896 14.75Z" stroke="#FFAE00" stroke-width="2"/>
<path d="M26.7709 7.38186L22.3986 23.2716C21.804 25.4323 21.5027 27.6632 21.5027 29.9042V41.8333C21.5027 44.5948 23.7413 46.8333 26.5027 46.8333H31.7805C34.5419 46.8333 36.7805 44.5948 36.7805 41.8333V29.577C36.7805 27.5514 36.5343 25.5334 36.0474 23.5673L32.0391 7.38186M26.7709 7.38186V3C26.7709 1.89543 27.6663 1 28.7709 1H30.0391C31.1437 1 32.0391 1.89543 32.0391 3V7.38186M26.7709 7.38186C28.5062 7.76405 30.3038 7.76405 32.0391 7.38186" stroke="#FFAE00" stroke-width="2"/>
<path d="M38.8175 46.4167H47.4749M56.1323 46.4167H47.4749M47.4749 46.4167V32.4167M47.4749 32.4167L38.8175 18.9167H56.1323L47.4749 32.4167ZM49.0027 22.9167L56.1323 14.4167M47.7295 22.4167C48.7139 22.4167 49.5119 23.2147 49.5119 24.1991V24.6343C49.5119 25.6187 48.7139 26.4167 47.7295 26.4167C46.7451 26.4167 45.9471 25.6187 45.9471 24.6343V24.1991C45.9471 23.2147 46.7451 22.4167 47.7295 22.4167Z" stroke="#FFAE00" stroke-width="2"/>
</svg>
