<svg width="47" height="37" viewBox="0 0 47 37" fill="none" xmlns="http://www.w3.org/2000/svg">
<path d="M43 15.412H4C3.44772 15.412 2.99504 14.9623 3.04686 14.4125C3.77553 6.68175 12.903 1.00026 23.5 1C33.331 0.999759 43.1621 6.68186 43.9493 14.4128C44.0053 14.9622 43.5523 15.412 43 15.412Z" stroke="#FFAE00" stroke-width="2"/>
<path d="M43 27.7647H4C3.44772 27.7647 3 28.2124 3 28.7647V35C3 35.5523 3.44771 36 4 36H43C43.5523 36 44 35.5523 44 35V28.7647C44 28.2124 43.5523 27.7647 43 27.7647Z" stroke="#FFAE00" stroke-width="2"/>
<path d="M1 21H46" stroke="#FFAE00" stroke-width="2" stroke-linecap="round"/>
</svg>
