<svg width="60" height="60" viewBox="0 0 60 60" fill="none" xmlns="http://www.w3.org/2000/svg">
<path d="M2.5 2.5H11.2854C11.7784 2.5 12.1978 2.85926 12.2736 3.34638L13.1141 8.75311M54.5576 42.3921H19.2002C18.7072 42.3921 18.2878 42.0329 18.212 41.5457L16.4278 30.0685M16.4278 30.0685H50.7228C51.1704 30.0685 51.5634 29.771 51.6851 29.3403L57.1408 10.0249C57.321 9.38678 56.8415 8.75311 56.1784 8.75311H13.1141M16.4278 30.0685L13.1141 8.75311M51.3889 57.5C49.6389 57.5 48.2202 56.0813 48.2202 54.3313V54.0505C48.2202 52.3004 49.6389 50.8817 51.3889 50.8817C53.1389 50.8817 54.5576 52.3004 54.5576 54.0505V54.3313C54.5576 56.0813 53.1389 57.5 51.3889 57.5ZM18.3663 57.5C16.5537 57.5 15.0844 56.0034 15.0844 54.1909C15.0844 52.3783 16.5537 50.8817 18.3663 50.8817C20.1788 50.8817 21.6481 52.3783 21.6481 54.1909C21.6481 56.0034 20.1788 57.5 18.3663 57.5Z" stroke="#FFAE00" stroke-width="5" stroke-linecap="round"/>
</svg>
