<svg width="106" height="52" viewBox="0 0 106 52" fill="none" xmlns="http://www.w3.org/2000/svg">
<path d="M2.50037 49.4999L47.5004 41.7656M2.50037 22.7812L28.1932 4.75238C28.4225 4.59151 28.7112 4.53439 28.9845 4.59583C36.6952 6.32972 40.8537 8.37842 47.5004 14.3437M2.50037 22.7812L47.5004 14.3437M2.50037 22.7812V29.8124M47.5004 14.3437V28.4062M2.50037 29.8124V41.2822C2.50037 41.9021 3.05873 42.3727 3.66976 42.2677L46.6698 34.8771C47.1496 34.7946 47.5004 34.3785 47.5004 33.8915V28.4062M2.50037 29.8124C4.59662 30.6793 6.13477 31.4136 7.77442 32.3813C9.9066 33.6396 12.6406 33.3987 14.3467 31.6046C15.7859 30.0912 16.8831 28.9498 17.7039 28.1185C18.8829 26.9242 20.5763 26.7469 22.0581 27.5348C23.3818 28.2385 24.4674 28.8522 25.474 29.4667C27.6276 30.7815 30.4261 30.5232 32.1555 28.6858C33.2536 27.5192 34.1489 26.5905 34.9342 25.809C36.3941 24.356 38.6281 24.1288 40.4492 25.0913C43.6302 26.7725 45.6756 27.7795 47.5004 28.4062" stroke="#FFAE00" stroke-width="5" stroke-linecap="round"/>
<path d="M61.1632 29.7499H57.5004M61.1632 29.7499H98.8376M61.1632 29.7499L62.0353 36.1785M61.1632 29.7499C56.7813 21.2262 60.3499 11.1998 68.4887 10.6816M98.8376 29.7499H102.5M98.8376 29.7499L97.7911 36.1785M98.8376 29.7499C102.5 23.8571 101.454 15.2857 96.2213 13.6785M62.0353 36.1785L63.6131 46.794C63.7588 47.7742 64.6003 48.4999 65.5913 48.4999H94.0845C95.065 48.4999 95.901 47.7891 96.0585 46.8213L97.7911 36.1785M62.0353 36.1785H97.7911M96.2213 13.6785L101.977 7.78566L97.7911 3.49994L91.512 9.39279M96.2213 13.6785L89.9422 19.5714M73.7213 11.5356C71.8213 10.8388 70.0689 10.581 68.4887 10.6816M68.4887 10.6816C70.0585 3.49994 83.6632 -0.25008 91.512 9.39279M91.512 9.39279L85.7562 14.7499M89.9422 19.5714C88.9154 17.0554 87.9923 16.0031 85.7562 14.7499M89.9422 19.5714C90.4597 20.6766 90.4655 21.7142 90.4655 22.7857M85.7562 14.7499C84.2927 14.0299 84.0195 13.9985 82.6166 14.2142" stroke="#FFAE00" stroke-width="5" stroke-linecap="round"/>
</svg>
