<svg width="95" height="48" viewBox="0 0 95 48" fill="none" xmlns="http://www.w3.org/2000/svg">
<path d="M1.00017 46.4L46.0002 38.6656M1.00017 19.6812L26.6931 1.6524C26.9223 1.49153 27.211 1.43442 27.4843 1.49586C35.1951 3.22975 39.3535 5.27845 46.0002 11.2437M1.00017 19.6812L46.0002 11.2437M1.00017 19.6812V26.7125M46.0002 11.2437V25.3062M1.00017 26.7125V38.1822C1.00017 38.8022 1.55853 39.2727 2.16956 39.1677L45.1696 31.7771C45.6494 31.6946 46.0002 31.2785 46.0002 30.7916V25.3062M1.00017 26.7125C3.09642 27.5793 4.63457 28.3137 6.27422 29.2813C8.4064 30.5397 11.1404 30.2988 12.8465 28.5046C14.2857 26.9912 15.3829 25.8498 16.2037 25.0185C17.3827 23.8242 19.0761 23.6469 20.5579 24.4348C21.8816 25.1386 22.9672 25.7522 23.9738 26.3667C26.1274 27.6815 28.9259 27.4232 30.6553 25.5858C31.7534 24.4192 32.6487 23.4905 33.434 22.709C34.8939 21.256 37.1279 21.0288 38.949 21.9913C42.13 23.6725 44.1754 24.6795 46.0002 25.3062" stroke="#FFAE00" stroke-width="2" stroke-linecap="round"/>
<path d="M52.663 27.65H49.0002M52.663 27.65H90.3374M52.663 27.65L53.5351 34.0785M52.663 27.65C48.2811 19.1263 51.8497 9.09986 59.9885 8.58167M90.3374 27.65H94.0002M90.3374 27.65L89.2909 34.0785M90.3374 27.65C94.0002 21.7571 92.9537 13.1857 87.7211 11.5785M53.5351 34.0785L55.1129 44.694C55.2586 45.6742 56.1001 46.4 57.0911 46.4H85.5843C86.5648 46.4 87.4008 45.6891 87.5583 44.7213L89.2909 34.0785M53.5351 34.0785H89.2909M87.7211 11.5785L93.4769 5.68568L89.2909 1.39996L83.0118 7.29281M87.7211 11.5785L81.442 17.4714M65.2211 9.43565C63.3211 8.73886 61.5687 8.48106 59.9885 8.58167M59.9885 8.58167C61.5583 1.39996 75.163 -2.35006 83.0118 7.29281M83.0118 7.29281L77.256 12.65M81.442 17.4714C80.4152 14.9554 79.4921 13.9032 77.256 12.65M81.442 17.4714C81.9595 18.5766 81.9653 19.6143 81.9653 20.6857M77.256 12.65C75.7925 11.9299 75.5193 11.8985 74.1164 12.1143" stroke="#FFAE00" stroke-width="2" stroke-linecap="round"/>
</svg>
