<svg width="45" height="45" viewBox="0 0 45 45" fill="none" xmlns="http://www.w3.org/2000/svg">
<path fill-rule="evenodd" clip-rule="evenodd" d="M21.7678 0.823754C22.744 1.92212 22.744 3.70289 21.7678 4.80125L8.53552 19.6875H42.5C43.8808 19.6875 45 20.9467 45 22.5C45 24.0534 43.8808 25.3125 42.5 25.3125H8.53552L21.7678 40.1988C22.744 41.2971 22.744 43.078 21.7678 44.1763C20.7915 45.2746 19.2085 45.2746 18.2323 44.1763L0.732225 24.4888C0.2634 23.9614 0 23.2459 0 22.5C0 21.7542 0.2634 21.0387 0.732225 20.5113L18.2323 0.823754C19.2085 -0.274585 20.7915 -0.274585 21.7678 0.823754Z" fill="#E6C933"/>
</svg>
