<svg width="46" height="50" viewBox="0 0 46 50" fill="none" xmlns="http://www.w3.org/2000/svg">
<path d="M11.1213 13.3C11.1213 11.1911 15.0825 4.73329 16.198 2.9566C16.3789 2.66845 16.6928 2.5 17.0331 2.5H22.8286M2.82861 18.5714L6.08417 44.8686C6.27022 46.3714 7.54712 47.5 9.06144 47.5H14.2254C15.7366 47.5 17.012 46.3759 17.2017 44.8766L20.5306 18.5714H2.82861Z" stroke="#E6C933" stroke-width="5"/>
<path d="M30.7741 11.0714L28.2971 23.6857C27.9855 25.2724 27.8286 26.8857 27.8286 28.5028V42.5C27.8286 45.2614 30.0672 47.5 32.8286 47.5H37.8286C40.59 47.5 42.8286 45.2614 42.8286 42.5V28.7231C42.8286 26.9603 42.6422 25.2024 42.2724 23.4788L39.6104 11.0714M30.7741 11.0714V4.5C30.7741 3.39543 31.6695 2.5 32.7741 2.5H37.6104C38.715 2.5 39.6104 3.39543 39.6104 4.5V11.0714M30.7741 11.0714C33.6774 11.7755 36.7071 11.7755 39.6104 11.0714" stroke="#E6C933" stroke-width="5"/>
</svg>
