<svg width="50" height="42" viewBox="0 0 50 42" fill="none" xmlns="http://www.w3.org/2000/svg">
<path d="M45.5 15.5H5.5C4.94772 15.5 4.49419 15.0494 4.55283 14.5003C5.34449 7.08544 14.919 2.50025 25.5 2.5C35.3163 2.49977 45.5911 7.08555 46.4431 14.5007C46.5061 15.0493 46.0523 15.5 45.5 15.5Z" stroke="#E6C933" stroke-width="5"/>
<path d="M45.5 31.5H5.5C4.94772 31.5 4.5 31.9477 4.5 32.5V38.5C4.5 39.0523 4.94772 39.5 5.5 39.5H45.5C46.0523 39.5 46.5 39.0523 46.5 38.5V32.5C46.5 31.9477 46.0523 31.5 45.5 31.5Z" stroke="#E6C933" stroke-width="5"/>
<path d="M2.5 23.5H47.5" stroke="#E6C933" stroke-width="5" stroke-linecap="round"/>
</svg>
